# xmcd
#
# Track frame offsets:
#	150
#	12750
#	24891
#	36396
#	48430
#	59948
#	71826
#	82088
#	94951
#	104491
#	114499
#	128192
#	141692
#	155684
#
# Disc length: 2239 seconds
#
# Revision: 1
# Processed by: cddbd v1.5.2PL0 Copyright (c) Steve Scherf et al.
# Submitted via: audiograbber 1.83.01
#
DISCID=d308bd0e
DTITLE=Ronny - Die grössen Erfolge
DYEAR=1900
DGENRE=Vocal
TTITLE0=01 - Oh My Darling Caroline
TTITLE1=02 - Kein Gold in Blue River
TTITLE2=03 - Sweet Marylle
TTITLE3=04 - Lass die Sonne wieder scheinen
TTITLE4=05 - Duna, du
TTITLE5=06 - Anja, Anja
TTITLE6=07 - Kenn' ein Land
TTITLE7=08 - Kleine Annabell
TTITLE8=09 - Einmal noch,
TTITLE9=10 - Eine kleine Träne
TTITLE10=11 - Wenn du einsam bist
TTITLE11=12 - Darling, Good Night
TTITLE12=13 - Und der Regen, der rinnt
TTITLE13=14 - Sweetheart, es war schön
EXTD=
EXTT0=
EXTT1=
EXTT2=
EXTT3=
EXTT4=
EXTT5=
EXTT6=
EXTT7=
EXTT8=
EXTT9=
EXTT10=
EXTT11=
EXTT12=
EXTT13=
PLAYORDER=
